<?xml version="1.0" encoding="UTF-8" standalone="no"?>
<svg
   xmlns:dc="http://purl.org/dc/elements/1.1/"
   xmlns:cc="http://creativecommons.org/ns#"
   xmlns:rdf="http://www.w3.org/1999/02/22-rdf-syntax-ns#"
   xmlns:svg="http://www.w3.org/2000/svg"
   xmlns="http://www.w3.org/2000/svg"
   xmlns:xlink="http://www.w3.org/1999/xlink"
   xmlns:sodipodi="http://sodipodi.sourceforge.net/DTD/sodipodi-0.dtd"
   xmlns:inkscape="http://www.inkscape.org/namespaces/inkscape"
   enable-background="new 24.0558 399.0558 2501.8884 2501.8884"
   image-rendering="optimizeQuality"
   shape-rendering="geometricPrecision"
   text-rendering="geometricPrecision"
   version="1.1"
   viewBox="24.0558 399.0558 2501.8884 2501.8884"
   xml:space="preserve"
   id="svg2942"
   sodipodi:docname="shutter.svg"
   inkscape:version="0.92.1 r"><metadata
     id="metadata2948"><rdf:RDF><cc:Work
         rdf:about=""><dc:format>image/svg+xml</dc:format><dc:type
           rdf:resource="http://purl.org/dc/dcmitype/StillImage" /></cc:Work></rdf:RDF></metadata><defs
     id="defs2946" /><sodipodi:namedview
     pagecolor="#ffffff"
     bordercolor="#666666"
     borderopacity="1"
     objecttolerance="10"
     gridtolerance="10"
     guidetolerance="10"
     inkscape:pageopacity="0"
     inkscape:pageshadow="2"
     inkscape:window-width="1067"
     inkscape:window-height="665"
     id="namedview2944"
     showgrid="false"
     inkscape:zoom="0.13340099"
     inkscape:cx="610.13917"
     inkscape:cy="942.61173"
     inkscape:window-x="733"
     inkscape:window-y="42"
     inkscape:window-maximized="0"
     inkscape:current-layer="svg2942" /><linearGradient
     id="fc"
     x1="118"
     x2="1270"
     y1="1549.7"
     y2="1549.7"
     gradientUnits="userSpaceOnUse"><stop
       offset="0"
       id="stop16" /><stop
       stop-color="#fff"
       offset="1"
       id="stop18" /></linearGradient><path
     d="m641.72 937.42c9.614 0 19.484 0.1886 29.337 0.5602l0.2728 0.0104 0.2731 0.0044c58.047 0.9213 119.6 7.1814 182.96 18.606l0.0361 0.0065 0.036 0.0063c113.32 20.092 231.6 54.494 352.31 102.42-71.367 33.169-141.91 69.803-210.37 109.27-88.154 50.23-169.81 104.11-249.63 164.74-126.14 94.611-234.82 195.48-323.03 299.81l-0.0215 0.0253-0.0213 0.0255c-89.708 106.68-152.45 210.26-186.47 307.86l-0.024 0.0687-0.0236 0.069c-12.062 35.258-20.188 69.126-24.371 101.47-14.735-39.837-27.207-80.453-37.323-121.6-21.666-88.135-32.652-179.24-32.652-270.78 0-99.344 12.919-197.98 38.4-293.16 25.482-95.19 63.589-187.16 113.26-273.36l0.098-0.17 0.0953-0.1714c4.8503-8.7306 9.2054-15.55 14.116-22.101 22.395-29.561 52.92-54.289 90.731-73.503 33.188-16.864 72.208-29.642 115.98-37.979l0.2017-0.0386 0.2009-0.0416c38.545-8 80.817-12.056 125.64-12.056m0-25c-43.47 0-87.749 3.6592-130.72 12.578-84 16-169 51-222 121-6 8-11 16-16 25-102 177-155 375-155 579 0 188 45 371 132 537-27-77-15-162 11-238 38-109 108-212 182-300 93-110 203-209 319-296 79-60 161-114 247-163 85-49 172-93 261-132-131-56-270-101-411-126-61-11-124-18-187-19-10.028-0.3784-20.135-0.5779-30.279-0.5779z"
     fill="url(#fc)"
     id="path21" /><linearGradient
     id="jz"
     x1="238.27"
     x2="1227"
     y1="2082"
     y2="2082"
     gradientUnits="userSpaceOnUse"><stop
       offset="0"
       id="stop541" /><stop
       stop-color="#fff"
       offset="1"
       id="stop543" /></linearGradient><path
     d="m729.17 1413.5c-7.4152 80.453-11.166 159.78-11.166 236.52 0 99.539 6.1172 200.48 18.18 300 18.447 155.14 51.52 299.64 98.299 429.47l0.0158 0.0435 0.0158 0.0437c47.601 130.6 105.66 236.16 172.55 313.76l0.0316 0.0366 0.0318 0.0366c24.585 28.296 49.948 52.431 75.995 72.345-21.793-3.7139-43.449-8.0564-64.911-13.02-68.145-15.761-135.11-37.964-199.05-65.993-64.032-28.071-125.75-62.307-183.44-101.76-58.249-39.831-113.09-85.456-163-135.61l-0.0214-0.0215-0.0214-0.0212c-68.953-68.954-128.81-147.22-177.91-232.62-4.784-8.6113-9.302-16.753-12.814-24.615-14.313-34.211-20.448-72.995-18.236-115.28 1.9457-37.183 10.322-77.42 24.897-119.59 32.168-91.382 91.227-188.66 175.56-289.17 72.934-87.203 161.9-172.65 264.99-254.56m30.834-55.481c-114 86-223 184-315 294-73 87-142 189-180 297-28 81-40 172-6 253 4 9 9 18 14 27 50 87 111 167 182 238 206 207 481 327 772 339-80-15-148-68-201-129-75-87-129-199-168-306-49-136-80-281-97-424-12-99-18-198-18-297 0-97 6-195 17-292z"
     fill="url(#jz)"
     id="path546" /><linearGradient
     id="hk"
     x1="767"
     x2="2240"
     y1="2380"
     y2="2380"
     gradientUnits="userSpaceOnUse"><stop
       offset="0"
       id="stop1052" /><stop
       stop-color="#fff"
       offset="1"
       id="stop1054" /></linearGradient><path
     d="m799.99 2009.1c59.407 42.098 123.84 83.148 195.49 124.58 87.697 50.984 178.09 96.518 268.67 135.34l0.0421 0.0181 0.042 0.0181c148.78 63.118 290.55 106.72 421.4 129.6 67.092 11.904 131.68 18.424 191.97 19.381 6.6509 0.123 13.33 0.1853 19.855 0.1853 53.957 0 103.81-4.2446 148.18-12.616l0.0366-0.0068 0.0369-0.0071c33.76-6.4746 65.051-15.496 93.759-27.009-20.42 24.168-41.834 47.467-64.145 69.779l-0.0203 0.0205-0.0203 0.0203c-52.608 52.851-110.56 100.61-172.25 141.96-61.158 40.996-126.6 76.1-194.51 104.34-67.934 28.25-138.99 49.901-211.2 64.351-72.887 14.586-147.69 21.982-222.33 21.982-8.6462 0-17.642-0.8892-27.159-1.8403-87.478-11.324-155.82-72.743-197.76-122.31l-0.1205-0.1426-0.1227-0.1406c-62.762-71.967-117.72-171.94-163.35-297.11-37.684-103.63-66.711-221.26-86.5-350.4m-32.995-55.058c18 140 48 282 96 414 39 107 93 219 168 305 55 65 128 120 214 131 10 1 20 2 30 2 308 0 601-122 818-340 55-55 104-115 147-180-54 52-126 81-199 95-46.656 8.8032-95.647 12.182-143.54 12.182-6.512 0-12.995-0.0625-19.458-0.1821-63-1-126-8-188-19-143-25-284-72-416-128-91-39-180-84-266-134-83-48-164-100-241-158z"
     fill="url(#hk)"
     id="path1057" /><linearGradient
     id="eq"
     x1="1280"
     x2="2432"
     y1="1750.2"
     y2="1750.2"
     gradientUnits="userSpaceOnUse"><stop
       offset="0"
       id="stop1479" /><stop
       stop-color="#fff"
       offset="1"
       id="stop1481" /></linearGradient><path
     d="m2337.2 1256c14.878 40.279 27.437 81.415 37.585 123.17 21.345 87.819 32.168 178.94 32.168 270.85 0 99.671-12.757 198.32-37.915 293.22-25.301 95.431-63.234 187.38-112.75 273.3l-0.0981 0.1699-0.0952 0.1714c-2.9675 5.3418-6.6477 10.684-10.544 16.34-1.5955 2.3162-3.2407 4.7043-4.9158 7.2039-22.38 28.918-52.765 53.19-90.329 72.155-33.306 16.816-72.346 29.562-115.99 37.875-42.435 8.0068-85.962 12.067-129.37 12.067-8.6484 0-17.42-0.1626-26.07-0.4829l-0.2642-0.0098-0.2644-0.0042c-57.708-0.916-117.58-7.0063-183-18.614-113.76-20.314-231.96-54.683-352.08-102.33 71.941-33.204 142.42-69.884 210.17-109.4 89.582-51.047 173.91-106.48 250.59-164.72 128.04-96.867 236.72-197.73 323.01-299.8l0.0754-0.0892 0.0745-0.0898c89.371-107.73 151.74-211.27 185.38-307.77 10.106-29.152 19.78-64.653 24.627-103.2m-36.247-142.99c26 77 14 163-12 238-38 109-108 212-181 300-93 110-204 209-319 296-79 60-162 114-248 163-84 49-171 93-261 132 131 56 271 101 411 126 62 11 124 18 187 19 8.9978 0.3333 18.002 0.5 26.995 0.5 44.979 0 89.836-4.1663 134-12.5 84-16 169-51 222-120 6-9 12-17 17-26 102-177 154-375 154-579 0-188-44-371-131-537z"
     fill="url(#eq)"
     id="path1484" /><linearGradient
     id="bj"
     x1="1323"
     x2="2311.7"
     y1="1218"
     y2="1218"
     gradientUnits="userSpaceOnUse"><stop
       offset="0"
       id="stop2004" /><stop
       stop-color="#fff"
       offset="1"
       id="stop2006" /></linearGradient><path
     d="m1466.9 534.26c21.793 3.7137 43.449 8.0564 64.912 13.02 68.145 15.761 135.11 37.964 199.05 65.993 64.032 28.071 125.75 62.307 183.44 101.76 58.249 39.83 113.09 85.455 163 135.61l0.0215 0.0215 0.0215 0.0214c68.953 68.954 128.81 147.22 177.91 232.62 4.7944 8.6299 9.3218 16.788 12.837 24.666 14.302 33.74 20.429 72.381 18.213 114.86-1.9548 37.468-10.336 77.845-24.912 120.01l-0.0112 0.0326-0.0112 0.0327c-31.065 90.678-90.097 188.24-175.45 289.98-73.421 86.988-162.41 172.13-265.04 253.63 7.4839-80.683 11.142-158.56 11.142-236.51 0-99.863-6.1155-200.45-18.178-298.98-18.615-156.57-51.695-301.09-98.308-429.51-47.271-130.9-105.34-236.83-172.58-314.83l-0.0316-0.0369-0.0317-0.0366c-24.585-28.296-49.948-52.43-75.995-72.345m-143.88-40.258c80 15 148 68 201 129 75 87 129 199 168 307 49 135 80 281 97 424 12 98 18 197 18 296 0 98-6 195-17 292 114-86 223-184 315-293 73-87 143-190 180-298 28-81 40-173 6-253-4-9-9-18-14-27-50-87-111-167-182-238-206-207-481-327-772-339z"
     fill="url(#bj)"
     id="path2009" /><linearGradient
     id="og"
     x1="298"
     x2="1785"
     y1="921.5"
     y2="921.5"
     gradientUnits="userSpaceOnUse"><stop
       offset="0"
       id="stop2508" /><stop
       stop-color="#fff"
       offset="1"
       id="stop2510" /></linearGradient><path
     d="m1275 518c9.5262 0 18.53 0 27.191 0.8441 36.64 4.689 73.263 18.742 108.85 41.77 31.181 20.176 61.826 47.355 91.083 80.782 62.898 72.984 117.85 173.26 163.36 298.09 39.193 109.42 68.402 228.95 87.05 356.06-65.2-46.193-131.95-88.855-199.05-127.2-86.406-50.232-173.95-94.166-267.63-134.32-144.52-61.939-286.28-105.88-421.35-130.61l-0.0677-0.0122-0.0677-0.0121c-67.092-11.904-131.68-18.424-191.97-19.381-6.6508-0.1229-13.317-0.1853-19.817-0.1853-53.896 5e-4 -102.35 4.1219-148.13 12.6l-0.2361 0.0437-0.2352 0.0483c-36.55 7.4973-69.888 17.564-99.91 30.145 21.65-26.141 44.589-51.545 68.714-76.081 52.814-53.048 110.94-100.93 172.77-142.31 61.266-41.011 126.84-76.098 194.89-104.29 67.998-28.164 139.19-49.738 211.6-64.123 72.98-14.498 147.99-21.849 222.96-21.849m0-25c-309 0-602 121-820 340-59 60-112 126-157 197 53-61 133-93 211-109 47.537-8.8031 95.858-12.182 143.58-12.182 6.4885-1e-4 12.957 0.0624 19.42 0.182 63 1 126 8 188 19 142 26 283 72 416 129 91 39 179 83 265 133 84 48 166 102 244 160-17-142-48-285-96-419-39-107-93-219-168-306-56-64-129-120-216-131-10-1-20-1-30-1z"
     fill="url(#og)"
     id="path2513"
     style="fill-opacity:1.0" /></svg>
